<svg xmlns="http://www.w3.org/2000/svg" xmlns:xlink="http://www.w3.org/1999/xlink" xmlns:lucid="lucid" width="170" height="151"><g transform="translate(-15 -13)" lucid:page-tab-id="0_0"><path d="M23 94.2c-1.65-2.88-1.65-7.52 0-10.4l34-58.6c1.65-2.88 5.7-5.2 9-5.2h68c3.3 0 7.35 2.32 9 5.2l34 58.6c1.65 2.88 1.65 7.52 0 10.4l-34 58.6c-1.65 2.88-5.7 5.2-9 5.2H66c-3.3 0-7.35-2.32-9-5.2z" stroke="#333" stroke-width="10" fill="#fff"/><path d="M0 6c0-3.3 2.7-6 6-6h188c3.3 0 6 2.7 6 6v168c0 3.3-2.7 6-6 6H6c-3.3 0-6-2.7-6-6z" fill="none"/><use xlink:href="#a" transform="matrix(1,0,0,1,0,0) translate(55.26400000000002 111.792)"/><defs><path fill="#333" d="M749-3C697 8 639 10 579-3l-14-414-110 273c-41 8-92 11-133 0l-98-269L213-3C154 9 113 9 52-3l29-714c55-10 123-11 178 0l142 372 147-372c51-10 115-10 167 0" id="b"/><path fill="#333" d="M447-390c70 28 118 81 119 180C565-32 429 11 250 12 175 12 128 6 60-2v-715c59-9 115-14 188-14 154 2 271 43 273 196 1 65-34 119-74 145zm-60 173c0-80-72-88-154-85v168c78 8 154-5 154-83zm-35-305c-1-61-55-76-119-70v148c70 3 121-10 119-78" id="c"/><g id="a"><use transform="matrix(0.06399999999999997,0,0,0.06399999999999997,0,0)" xlink:href="#b"/><use transform="matrix(0.06399999999999997,0,0,0.06399999999999997,51.26399999999998,0)" xlink:href="#c"/></g></defs></g></svg>